<?xml version="1.0" encoding="utf-8"?>
<!-- Generator: Adobe Illustrator 28.3.0, SVG Export Plug-In . SVG Version: 6.00 Build 0)  -->
<svg version="1.1" id="Calque_1" xmlns="http://www.w3.org/2000/svg" xmlns:xlink="http://www.w3.org/1999/xlink" x="0px" y="0px"
	 viewBox="0 0 48 48" style="enable-background:new 0 0 48 48;" xml:space="preserve">
<style type="text/css">
	.st0{fill:#FFFFFF;}
	.st1{fill:url(#SVGID_1_);}
</style>
<path class="st0" d="M8.9,0h30.2C44,0,48,4,48,8.9v30.2c0,4.9-4,8.9-8.9,8.9H8.9C4,48,0,44,0,39.1V8.9C0,4,4,0,8.9,0z"/>
<linearGradient id="SVGID_1_" gradientUnits="userSpaceOnUse" x1="9.2369" y1="13.0123" x2="39.2478" y2="37.9639" gradientTransform="matrix(1 0 0 -1 0 50)">
	<stop  offset="0" style="stop-color:#989FFF"/>
	<stop  offset="1" style="stop-color:#29A2FF"/>
</linearGradient>
<path class="st1" d="M11.3,30H7.9l5.9-13.4H18L23.9,30h-3.4l-1.3-3h-6.7L11.3,30z M15,21.4l-1.3,2.9h4.4l-1.3-2.9L16,19.3h-0.2
	L15,21.4z M27.6,30h-3V16.6h3v5.3h7v-5.3h3V30h-3v-5.4h-7V30z"/>
</svg>
